<?xml version="1.0" encoding="UTF-8" standalone="no"?>
<!DOCTYPE svg PUBLIC "-//W3C//DTD SVG 1.1//EN" "http://www.w3.org/Graphics/SVG/1.1/DTD/svg11.dtd">
<svg width="100%" height="100%" viewBox="0 0 964 347" version="1.1" xmlns="http://www.w3.org/2000/svg" xmlns:xlink="http://www.w3.org/1999/xlink" xml:space="preserve" xmlns:serif="http://www.serif.com/" style="fill-rule:evenodd;clip-rule:evenodd;stroke-miterlimit:2;">
    <g transform="matrix(1,0,0,1,-9.668379,-6.585961)">
        <g>
            <path d="M29.793,125.501C29.793,180.174 74.114,224.495 128.787,224.495C183.459,224.495 227.78,180.174 227.78,125.501C227.78,70.829 183.459,26.508 128.787,26.508C74.114,26.508 29.793,70.829 29.793,125.501Z" style="fill:none;stroke:rgb(3,4,4);stroke-width:17.82px;"/>
            <path d="M425.76,215.515L425.76,233.521C425.76,288.194 381.439,332.515 326.766,332.515C272.094,332.515 227.773,288.194 227.773,233.521L227.773,125.501C227.773,70.829 272.094,26.508 326.766,26.508C381.439,26.508 425.76,70.829 425.76,125.501L425.76,143.515L425.76,26.515" style="fill:none;stroke:rgb(3,4,4);stroke-width:17.82px;"/>
            <path d="M128.787,89.515C108.904,89.515 92.786,105.632 92.786,125.515C92.786,145.397 108.904,161.515 128.787,161.515C148.669,161.515 164.787,145.397 164.787,125.515C164.787,105.632 148.669,89.515 128.787,89.515ZM128.787,107.515C138.712,107.515 146.787,115.589 146.787,125.515C146.787,135.44 138.712,143.515 128.787,143.515C118.861,143.515 110.787,135.44 110.787,125.515C110.787,115.589 118.861,107.515 128.787,107.515Z" style="fill:rgb(3,4,4);fill-rule:nonzero;"/>
            <path d="M29.793,125.501L29.793,332.515" style="fill:none;stroke:rgb(3,4,4);stroke-width:18px;"/>
            <path d="M29.766,134.518C29.766,243.869 118.413,332.515 227.763,332.515" style="fill:none;stroke:rgb(3,4,4);stroke-width:17.82px;"/>
            <path d="M456.113,180.42L459.675,180.42L465.724,191.006L469.757,191.006L463.103,180.084C466.497,179.513 468.883,177.295 468.883,173.8C468.883,168.961 465.018,167.213 460.414,167.213L452.786,167.213L452.786,191.006L456.113,191.006L456.113,180.42ZM456.113,170.036L460.179,170.036C463.069,170.036 465.523,170.943 465.523,173.8C465.523,176.657 463.069,177.631 459.944,177.631L456.113,177.631L456.113,170.036Z" style="fill:rgb(3,4,4);fill-rule:nonzero;"/>
            <path d="M481.317,185.159L492.609,185.159L495.029,191.006L498.793,191.006L488.576,167.213L485.552,167.213L475.235,191.006L478.931,191.006L481.317,185.159ZM486.963,171.078L491.399,182.235L482.494,182.235L486.963,171.078Z" style="fill:rgb(3,4,4);fill-rule:nonzero;"/>
            <path d="M530.921,188.217L524.368,188.217L524.368,188.15C527.292,186.335 529.275,183.042 529.275,178.807C529.275,171.649 524.032,166.608 516.975,166.608C509.85,166.608 504.574,171.649 504.574,178.807C504.574,186.201 509.682,191.006 516.941,191.006L530.921,191.006L530.921,188.217ZM508.17,178.807C508.17,173.733 511.631,169.532 516.975,169.532C522.352,169.532 525.712,173.733 525.712,178.807C525.712,184.016 522.184,188.083 516.941,188.083C511.598,188.083 508.17,184.016 508.17,178.807Z" style="fill:rgb(3,4,4);fill-rule:nonzero;"/>
            <path d="M549.169,191.611C555.454,191.611 558.411,187.075 558.411,182.202L558.411,167.213L555.084,167.213L555.084,182C555.084,185.26 553.606,188.62 549.169,188.62C544.733,188.62 543.255,185.26 543.255,182L543.255,167.213L539.928,167.213L539.928,182.202C539.928,187.075 542.885,191.611 549.169,191.611Z" style="fill:rgb(3,4,4);fill-rule:nonzero;"/>
            <path d="M573.231,180.118L584.456,180.118L584.456,177.261L573.231,177.261L573.231,170.137L585.162,170.137L585.162,167.213L569.904,167.213L569.904,191.007L585.666,191.007L585.666,188.049L573.231,188.049L573.231,180.118Z" style="fill:rgb(3,4,4);fill-rule:nonzero;"/>
            <path d="M599.31,167.213L595.983,167.213L595.983,191.007L609.93,191.007L609.93,188.049L599.31,188.049L599.31,167.213Z" style="fill:rgb(3,4,4);fill-rule:nonzero;"/>
            <path d="M644.544,185.495C643.132,187.545 640.814,188.654 638.159,188.654C632.681,188.654 629.219,184.42 629.219,179.076C629.219,173.867 632.748,169.532 638.26,169.532C640.713,169.532 643.032,170.708 644.174,172.321L646.796,170.305C645.048,167.885 641.519,166.608 638.26,166.608C631.034,166.608 625.59,171.649 625.59,179.076C625.59,186.402 630.832,191.611 638.125,191.611C642.292,191.611 645.35,189.83 647.199,187.31L644.544,185.495Z" style="fill:rgb(3,4,4);fill-rule:nonzero;"/>
            <path d="M658.759,185.159L670.051,185.159L672.471,191.006L676.235,191.006L666.018,167.213L662.994,167.213L652.677,191.006L656.373,191.006L658.759,185.159ZM664.405,171.078L668.841,182.235L659.936,182.235L664.405,171.078Z" style="fill:rgb(3,4,4);fill-rule:nonzero;"/>
            <path d="M687.829,180.42L691.391,180.42L697.44,191.006L701.473,191.006L694.819,180.084C698.213,179.513 700.599,177.295 700.599,173.8C700.599,168.961 696.734,167.213 692.13,167.213L684.502,167.213L684.502,191.006L687.829,191.006L687.829,180.42ZM687.829,170.036L691.895,170.036C694.785,170.036 697.239,170.943 697.239,173.8C697.239,176.657 694.785,177.631 691.66,177.631L687.829,177.631L687.829,170.036Z" style="fill:rgb(3,4,4);fill-rule:nonzero;"/>
            <path d="M718.948,170.137L726.577,170.137L726.577,167.213L707.992,167.213L707.992,170.137L715.621,170.137L715.621,191.006L718.948,191.006L718.948,170.137Z" style="fill:rgb(3,4,4);fill-rule:nonzero;"/>
            <path d="M736.288,185.159L747.58,185.159L750,191.006L753.764,191.006L743.547,167.213L740.523,167.213L730.206,191.006L733.902,191.006L736.288,185.159ZM741.934,171.078L746.37,182.235L737.465,182.235L741.934,171.078Z" style="fill:rgb(3,4,4);fill-rule:nonzero;"/>
            <path d="M769.29,180.723L778.196,167.213L774.331,167.213L767.711,177.967L761.124,167.213L757.024,167.213L765.929,180.723L765.929,191.006L769.29,191.006L769.29,180.723Z" style="fill:rgb(3,4,4);fill-rule:nonzero;"/>
            <path d="M787.538,185.159L798.83,185.159L801.25,191.006L805.014,191.006L794.797,167.213L791.773,167.213L781.456,191.006L785.152,191.006L787.538,185.159ZM793.184,171.078L797.62,182.235L788.715,182.235L793.184,171.078Z" style="fill:rgb(3,4,4);fill-rule:nonzero;"/>
            <path d="M837.713,169.532C835.629,167.616 832.605,166.608 829.916,166.608C825.48,166.608 820.708,168.793 820.708,174.069C820.708,178.37 823.766,179.916 826.791,180.891C829.916,181.899 831.731,182.47 831.731,184.285C831.731,186.201 830.185,186.873 828.437,186.873C826.555,186.873 824.438,185.797 823.296,184.352L819.532,188.184C821.615,190.368 825.043,191.611 828.437,191.611C833.142,191.611 837.545,189.158 837.545,183.68C837.545,178.942 833.378,177.564 830.151,176.522C827.9,175.816 826.488,175.312 826.488,173.733C826.488,171.851 828.337,171.347 829.815,171.347C831.294,171.347 833.075,172.153 834.05,173.397L837.713,169.532Z" style="fill:rgb(3,4,4);fill-rule:nonzero;"/>
            <path d="M863.691,172.12L863.691,167.213L844.501,167.213L844.501,172.12L851.223,172.12L851.223,191.007L856.969,191.007L856.969,172.12L863.691,172.12Z" style="fill:rgb(3,4,4);fill-rule:nonzero;"/>
            <path d="M892.357,182.034L892.357,167.213L886.61,167.213L886.61,181.563C886.61,184.117 885.4,186.47 882.14,186.47C878.914,186.47 877.671,184.117 877.671,181.563L877.671,167.213L871.958,167.213L871.958,182.034C871.958,187.747 875.856,191.645 882.107,191.645C888.324,191.645 892.357,187.747 892.357,182.034Z" style="fill:rgb(3,4,4);fill-rule:nonzero;"/>
            <path d="M925.09,179.043C925.09,170.036 918.234,167.213 911.479,167.213L902.876,167.213L902.876,191.006L911.748,191.006C918.301,191.006 925.09,187.411 925.09,179.043ZM919.108,179.043C919.108,184.352 915.31,186.033 911.21,186.033L908.488,186.033L908.488,172.12L911.345,172.12C915.31,172.12 919.108,173.699 919.108,179.043Z" style="fill:rgb(3,4,4);fill-rule:nonzero;"/>
            <rect x="933.424" y="167.213" width="5.78" height="23.793" style="fill:rgb(3,4,4);fill-rule:nonzero;"/>
            <path d="M973.448,179.009C973.448,171.38 967.937,166.575 960.476,166.575C953.049,166.575 947.538,171.38 947.538,179.009C947.538,186.537 953.049,191.645 960.476,191.645C967.937,191.645 973.448,186.537 973.448,179.009ZM967.298,179.009C967.298,183.311 964.475,186.402 960.476,186.402C956.477,186.402 953.688,183.311 953.688,179.009C953.688,174.842 956.444,171.75 960.476,171.75C964.509,171.75 967.298,174.842 967.298,179.009Z" style="fill:rgb(3,4,4);fill-rule:nonzero;"/>
        </g>
    </g>
</svg>
